<svg width="60" height="60" viewBox="0 0 60 60" fill="none" xmlns="http://www.w3.org/2000/svg">
<g clip-path="url(#clip0_124_148)">
<path fill-rule="evenodd" clip-rule="evenodd" d="M43.6071 39.3379L59.8705 55.6013L55.6011 59.8706L39.3378 43.6072C35.2481 46.7863 30.1093 48.6793 24.5283 48.6793C11.1901 48.6793 0.377319 37.8666 0.377319 24.5284C0.377319 11.1902 11.1901 0.377441 24.5283 0.377441C37.8665 0.377441 48.6792 11.1902 48.6792 24.5284C48.6792 30.1094 46.7861 35.2483 43.6071 39.3379ZM24.5283 42.6416C34.5319 42.6416 42.6415 34.532 42.6415 24.5284C42.6415 14.5247 34.5319 6.41518 24.5283 6.41518C14.5246 6.41518 6.41506 14.5247 6.41506 24.5284C6.41506 34.532 14.5246 42.6416 24.5283 42.6416ZM21.5094 21.5095V12.4529H27.5471V21.5095H36.6037V27.5473H27.5471V36.6039H21.5094V27.5473H12.4528V21.5095H21.5094Z" fill="white"/>
</g>
<defs>
<clipPath id="clip0_124_148">
<rect width="60" height="60" fill="white"/>
</clipPath>
</defs>
</svg>
