<svg width="60" height="60" viewBox="0 0 60 60" fill="none" xmlns="http://www.w3.org/2000/svg">
<path d="M40.1617 53.5494C40.1614 50.4118 39.5721 47.3043 38.4265 44.3979C40.6523 42.2309 43.5914 41.0242 46.644 41.0203C49.8405 41.0248 52.9131 42.3366 55.1856 44.6812C57.4597 47.0273 58.7457 50.2161 58.75 53.5502C58.7498 53.6155 58.7243 53.6705 58.6907 53.7052C58.6582 53.7387 58.6226 53.75 58.5941 53.75H40.1612C40.1617 53.6866 40.1617 53.6265 40.1617 53.5709L40.1617 53.5495L40.1617 53.5494ZM39.5901 53.75C39.5908 53.75 39.5915 53.75 39.5922 53.75L39.5901 53.75ZM39.592 54.304L39.591 54.305L39.592 54.304Z" stroke="white" stroke-width="2.5"/>
<path d="M12.6407 13.5681L10.6132 11.9576V14.2669C9.98677 15.6003 9.65635 17.0604 9.64601 18.5414L9.6459 18.5567L9.64617 18.572C9.69248 21.2158 10.7428 23.7428 12.5827 25.6071C14.4239 27.4726 16.9096 28.525 19.507 28.525C22.1045 28.525 24.5902 27.4726 26.4314 25.6071C28.2713 23.7428 29.3216 21.2158 29.3679 18.572L29.3681 18.5611V18.5501C29.3681 18.3541 29.3468 18.1804 29.3313 18.0631C29.3263 18.0257 29.3221 17.9948 29.3185 17.9682C29.3087 17.896 29.3033 17.8564 29.2997 17.8095L29.1827 16.3012L27.7235 16.7004C25.1461 17.4056 22.4468 17.4901 19.8331 16.9478C17.2193 16.4055 14.7583 15.2502 12.6407 13.5681ZM31.2731 23.3022C30.2905 26.2633 28.3014 28.745 25.6871 30.2933C23.7934 31.3881 21.6657 31.9718 19.5 31.9932C16.4946 31.9907 13.5862 30.8617 11.3176 28.8064C9.04638 26.7489 7.57124 23.9024 7.17758 20.7942C6.7839 17.6858 7.50031 14.5388 9.18713 11.9416C10.8734 9.34533 13.411 7.47949 16.3198 6.68061C19.2279 5.88195 22.3187 6.20102 25.0188 7.58159C27.72 8.96273 29.8518 11.3156 31.0066 14.2106C32.1616 17.1063 32.2566 20.3387 31.2731 23.3022Z" stroke="white" stroke-width="2.5"/>
<path d="M21.3682 48.5402L20.4706 47.6702L21.3682 48.5401C21.9936 47.8949 22.3383 47.0279 22.3383 46.1317V41.9138C22.3383 41.0176 21.9936 40.1506 21.3682 39.5054L20.4706 40.3754L21.3682 39.5054C20.7415 38.8589 19.8831 38.4882 18.9795 38.4882C18.0758 38.4882 17.2174 38.8589 16.5907 39.5054C15.9653 40.1506 15.6206 41.0176 15.6206 41.9138V46.1317C15.6206 47.0279 15.9653 47.8949 16.5907 48.5401C17.2174 49.1867 18.0758 49.5574 18.9795 49.5574C19.8831 49.5574 20.7415 49.1867 21.3682 48.5402ZM31.5024 40.5734C34.8318 44.0084 36.7089 48.6753 36.7089 53.5493C36.7089 53.6149 36.6833 53.6702 36.6496 53.705C36.6171 53.7384 36.5816 53.7498 36.553 53.7498H1.40589C1.37735 53.7498 1.34179 53.7384 1.30934 53.705C1.2756 53.6702 1.25 53.6149 1.25 53.5493C1.25 48.6753 3.12709 44.0084 6.45652 40.5734C9.78466 37.1398 14.2901 35.2183 18.9795 35.2183C23.6688 35.2183 28.1743 37.1398 31.5024 40.5734Z" stroke="white" stroke-width="2.5"/>
<path d="M54.5687 29.1177C54.5687 33.6922 50.9841 37.3334 46.6439 37.3334C42.3036 37.3334 38.7191 33.6922 38.7191 29.1177C38.7191 24.5433 42.3036 20.9021 46.6439 20.9021C50.9841 20.9021 54.5687 24.5433 54.5687 29.1177Z" stroke="white" stroke-width="2.5"/>
</svg>
