<svg width="18" height="18" viewBox="0 0 18 18" fill="none" xmlns="http://www.w3.org/2000/svg">
<g clip-path="url(#clip0_109_24620)">
<path d="M6.95957 17.5055C6.95957 17.7786 7.18111 18 7.45403 18H10.5458C10.8189 18 11.0402 17.7786 11.0402 17.5055V16.5468C11.6904 16.3718 12.3119 16.1141 12.896 15.7776L13.5728 16.4545C13.6655 16.5472 13.7913 16.5993 13.9226 16.5993C14.0536 16.5993 14.1795 16.5472 14.2722 16.4543L16.4575 14.2672C16.6505 14.0741 16.6505 13.761 16.4575 13.568L15.7815 12.8919C16.118 12.3078 16.3756 11.6862 16.5506 11.036H17.5055C17.7787 11.036 18 10.8146 18 10.5415V7.44945C18 7.17631 17.7787 6.95494 17.5055 6.95494H16.5504C16.3754 6.30494 16.118 5.68333 15.7815 5.0992L16.4538 4.42679C16.5465 4.33407 16.5987 4.20812 16.5987 4.07696C16.5985 3.9458 16.5464 3.81986 16.4536 3.72714L14.2666 1.54166C14.0737 1.34869 13.7606 1.34869 13.5674 1.54185L12.896 2.21349C12.3119 1.87699 11.6904 1.61931 11.0402 1.4443V0.494505C11.0402 0.221368 10.8189 0 10.5458 0H7.45403C7.18111 0 6.95957 0.221368 6.95957 0.494505V1.4445C6.30962 1.61931 5.68806 1.87699 5.10398 2.21349L4.4324 1.54185C4.23944 1.34888 3.92635 1.34869 3.7332 1.54166L1.54636 3.72733C1.45345 3.82005 1.4013 3.9458 1.4013 4.07696C1.4013 4.20812 1.45345 4.33407 1.54616 4.42679L2.21852 5.0992C1.88205 5.68333 1.62439 6.30475 1.4494 6.95494H0.496202C0.223088 6.95494 0.00173888 7.17631 0.00173888 7.44925L5.34553e-07 10.5413C-0.000192603 10.6724 0.0519578 10.7984 0.14467 10.8911C0.237381 10.9838 0.363122 11.036 0.494464 11.036H1.4494C1.62439 11.6862 1.88205 12.3078 2.21852 12.8919L1.54249 13.568C1.34954 13.761 1.34934 14.0741 1.54249 14.2672L3.72779 16.4543C3.8205 16.547 3.94624 16.5993 4.07739 16.5993H4.07758C4.20873 16.5993 4.33447 16.5472 4.42718 16.4545L5.10379 15.7776C5.68806 16.1141 6.30962 16.3718 6.95957 16.5468V17.5055ZM5.29771 14.7376C5.10205 14.6111 4.84458 14.6385 4.67963 14.8033L4.07758 15.4054L2.5913 13.9178L3.19276 13.3161C3.35752 13.1513 3.38495 12.8938 3.25843 12.6982C2.81013 12.0043 2.49491 11.2438 2.32185 10.4375C2.27279 10.2098 2.07153 10.047 1.8384 10.047H0.98912L0.990279 7.94395H1.8384C2.07153 7.94395 2.27279 7.78131 2.32185 7.55337C2.49491 6.74729 2.81013 5.98679 3.25843 5.29294C3.38495 5.09726 3.35752 4.83977 3.19276 4.675L2.59516 4.07716L4.0826 2.59074L4.67963 3.18801C4.84458 3.35278 5.10185 3.38002 5.29771 3.25369C5.99131 2.80535 6.75174 2.4901 7.55795 2.31703C7.78567 2.26796 7.94849 2.06649 7.94849 1.83353V0.98901H10.0513V1.83334C10.0513 2.06649 10.2139 2.26796 10.4419 2.31683C11.2479 2.4901 12.0085 2.80516 12.7021 3.25349C12.8978 3.38002 13.1552 3.35278 13.32 3.18782L13.9172 2.59074L15.4046 4.07716L14.807 4.67481C14.6421 4.83977 14.6149 5.09726 14.7414 5.29294C15.1897 5.98679 15.5047 6.74729 15.678 7.55337C15.7268 7.78131 15.9283 7.94395 16.1614 7.94395H17.0111V10.047H16.1614C15.9283 10.047 15.727 10.2098 15.678 10.4375C15.5049 11.2436 15.1897 12.0043 14.7414 12.698C14.6149 12.8938 14.6423 13.1513 14.807 13.3161L15.4085 13.9176L13.9222 15.4052L13.3202 14.8033C13.1552 14.6383 12.8978 14.6111 12.7021 14.7376C12.0083 15.1859 11.2479 15.501 10.4419 15.6743C10.2139 15.7233 10.0513 15.9246 10.0513 16.1578V17.011H7.94849V16.1578C7.94849 15.9248 7.78567 15.7233 7.55795 15.6743C6.75193 15.5012 5.9915 15.1859 5.29771 14.7376Z" fill="#393939"/>
<path d="M13.0894 8.99961C13.0894 6.74653 11.2566 4.91357 9.00366 4.91357C6.75077 4.91357 4.91797 6.74653 4.91797 8.99961C4.91797 11.2527 6.75077 13.0857 9.00366 13.0857C11.2566 13.0857 13.0894 11.2527 13.0894 8.99961ZM5.90689 8.99961C5.90689 7.29183 7.29603 5.90258 9.00366 5.90258C10.7113 5.90258 12.1004 7.29203 12.1004 8.99961C12.1004 10.7072 10.7113 12.0966 9.00366 12.0966C7.29603 12.0966 5.90689 10.7074 5.90689 8.99961Z" fill="#393939"/>
</g>
<defs>
<clipPath id="clip0_109_24620">
<rect width="18" height="18" fill="white" transform="matrix(-1 0 0 1 18 0)"/>
</clipPath>
</defs>
</svg>
