<svg width="18" height="18" viewBox="0 0 18 18" fill="none" xmlns="http://www.w3.org/2000/svg">
<g clip-path="url(#clip0_109_24572)">
<path d="M11.0625 6.00005H16.6875C17.4113 6.00005 18 5.41132 18 4.68745V1.31245C18 0.58873 17.4113 0 16.6875 0H11.0625C10.3387 0 9.74995 0.58873 9.74995 1.31245V4.68745C9.74995 5.41132 10.3387 6.00005 11.0625 6.00005ZM16.6875 1.125C16.791 1.125 16.875 1.20905 16.875 1.31245V4.68745C16.875 4.791 16.791 4.87505 16.6875 4.87505H11.0625C10.959 4.87505 10.875 4.791 10.875 4.68745V1.31245C10.875 1.20905 10.959 1.125 11.0625 1.125H16.6875Z" fill="#393939"/>
<path d="M11.0625 18H16.6875C17.4113 18 18 17.4113 18 16.6876V8.81259C18 8.08873 17.4113 7.5 16.6875 7.5H11.0625C10.3387 7.5 9.74995 8.08873 9.74995 8.81259V16.6876C9.74995 17.4113 10.3387 18 11.0625 18ZM16.6875 8.625C16.791 8.625 16.875 8.70905 16.875 8.81259V16.6876C16.875 16.791 16.791 16.875 16.6875 16.875H11.0625C10.959 16.875 10.875 16.791 10.875 16.6876V8.81259C10.875 8.70905 10.959 8.625 11.0625 8.625H16.6875Z" fill="#393939"/>
<path d="M1.31241 18H6.93741C7.66127 18 8.25 17.4113 8.25 16.6876V13.3126C8.25 12.5887 7.66127 12 6.93741 12H1.31241C0.588684 12 -4.57764e-05 12.5887 -4.57764e-05 13.3126V16.6876C-4.57764e-05 17.4113 0.588684 18 1.31241 18ZM6.93741 13.125C7.04095 13.125 7.125 13.209 7.125 13.3126V16.6876C7.125 16.791 7.04095 16.875 6.93741 16.875H1.31241C1.209 16.875 1.12495 16.791 1.12495 16.6876V13.3126C1.12495 13.209 1.209 13.125 1.31241 13.125H6.93741Z" fill="#393939"/>
<path d="M1.31241 10.5H6.93741C7.66127 10.5 8.25 9.91131 8.25 9.18745V1.31245C8.25 0.58873 7.66127 0 6.93741 0H1.31241C0.588684 0 -4.57764e-05 0.58873 -4.57764e-05 1.31245V9.18745C-4.57764e-05 9.91131 0.588684 10.5 1.31241 10.5ZM6.93741 1.125C7.04095 1.125 7.125 1.20905 7.125 1.31245V9.18745C7.125 9.291 7.04095 9.37504 6.93741 9.37504H1.31241C1.209 9.37504 1.12495 9.291 1.12495 9.18745V1.31245C1.12495 1.20905 1.209 1.125 1.31241 1.125H6.93741Z" fill="#393939"/>
</g>
<defs>
<clipPath id="clip0_109_24572">
<rect width="18" height="18" fill="white" transform="matrix(-1 0 0 1 18 0)"/>
</clipPath>
</defs>
</svg>
