<svg width="18" height="18" viewBox="0 0 18 18" fill="none" xmlns="http://www.w3.org/2000/svg">
<g clip-path="url(#clip0_109_24628)">
<path d="M8.97141 16.5H2.24284C1.83015 16.5 1.49524 16.164 1.49524 15.75V2.25002C1.49524 1.83602 1.83018 1.50004 2.24284 1.50004H8.97141C9.38484 1.50004 9.71901 1.1648 9.71901 0.750054C9.71901 0.335309 9.38484 0 8.97141 0H2.24284C1.00628 0 0 1.00953 0 2.25002V15.75C0 16.9905 1.00628 18 2.24284 18H8.97141C9.38484 18 9.71901 17.6648 9.71901 17.25C9.71901 16.8353 9.38484 16.5 8.97141 16.5Z" fill="#393939"/>
<path d="M17.7754 8.46544L13.2299 3.96543C12.9369 3.67443 12.4629 3.6782 12.1728 3.97295C11.8827 4.26769 11.8857 4.74244 12.1803 5.03344L15.4287 8.24943H6.72416C6.31074 8.24943 5.97656 8.58467 5.97656 8.99941C5.97656 9.41416 6.31074 9.74943 6.72416 9.74943H15.4287L12.1803 12.9654C11.8857 13.2564 11.8835 13.7312 12.1728 14.0259C12.3193 14.1744 12.5122 14.2494 12.7051 14.2494C12.895 14.2494 13.0849 14.1774 13.2299 14.0334L17.7754 9.53338C17.9175 9.39239 17.9982 9.20036 17.9982 8.99938C17.9982 8.79846 17.9182 8.6072 17.7754 8.46544Z" fill="#393939"/>
</g>
<defs>
<clipPath id="clip0_109_24628">
<rect width="18" height="18" fill="white" transform="matrix(-1 0 0 1 18 0)"/>
</clipPath>
</defs>
</svg>
