<svg width="60" height="60" viewBox="0 0 60 60" fill="none" xmlns="http://www.w3.org/2000/svg">
<g clip-path="url(#clip0_124_150)">
<path d="M26.2794 60.3005C24.5764 59.7666 23.4934 58.6358 23.2307 56.7755C22.9339 54.6734 24.4379 52.5425 26.4969 52.3186C28.7799 52.0968 31.0776 52.0905 33.3617 52.2998C34.8266 52.4173 35.8687 53.2986 36.4486 54.7014C36.6194 55.1145 36.8364 55.2422 37.2498 55.2386C39.3735 55.2202 41.4975 55.2469 43.6211 55.2247C47.3769 55.1855 50.436 51.6823 50.1617 47.7839C50.1316 47.3494 49.9061 47.3372 49.6016 47.3378C47.9474 47.3417 46.2933 47.3417 44.6392 47.3378C42.6843 47.3309 41.4806 46.0798 41.4788 44.0459C41.4748 39.5737 41.4846 35.1016 41.4732 30.6294C41.4697 29.3064 41.9443 28.2797 43.059 27.6087C43.2747 27.4789 43.4049 27.3305 43.3971 27.0584C43.3219 24.6037 43.569 22.142 43.1729 19.6939C42.2597 14.0494 37.4436 9.23656 31.9639 8.52641C26.0212 7.75625 20.888 10.4848 18.073 15.9483C17.1432 17.7454 16.6429 19.7486 16.6144 21.7887C16.5855 23.4677 16.6129 25.1481 16.5983 26.827C16.5948 27.2133 16.6873 27.4664 17.0368 27.6787C18.0461 28.2919 18.5205 29.2522 18.5219 30.4567C18.5267 35.007 18.5267 39.5573 18.5219 44.1077C18.5184 46.0673 17.2971 47.3317 15.415 47.3372C13.1407 47.3439 10.8664 47.3552 8.59246 47.3284C5.58946 47.2933 3.03835 44.6244 3.01534 41.4947C2.99529 38.7217 2.99474 35.9485 3.01369 33.1753C3.03485 31.776 3.52409 30.428 4.39744 29.3626C5.2708 28.2973 6.4738 27.581 7.79998 27.3367C8.76629 27.1661 8.7514 27.1658 8.76959 26.1686C8.80508 24.2178 8.69441 22.2666 8.86268 20.3153C9.18971 16.2018 10.651 12.2735 13.0715 9.00078C16.47 4.36891 20.9676 1.58328 26.4722 0.537812C26.9684 0.444062 27.4716 0.379062 27.9714 0.300781H32.0316C32.1202 0.331036 32.2106 0.3551 32.3023 0.372812C38.4443 1.14031 43.3876 4.09156 47.092 9.22984C49.4668 12.5242 50.7941 16.2511 51.1419 20.3603C51.3073 22.3106 51.1976 24.2609 51.2331 26.2109C51.2507 27.1733 51.2363 27.1736 52.1303 27.3278C53.4786 27.555 54.706 28.2705 55.5953 29.3477C56.4847 30.425 56.9785 31.7944 56.9895 33.2136C57.0035 35.9464 57.0035 38.6793 56.9895 41.4122C56.9799 42.6814 56.5795 43.9141 55.847 44.9298C55.1144 45.9455 54.0882 46.6908 52.9185 47.0567C52.3456 47.2286 52.2155 47.4942 52.2118 48.0706C52.1903 51.0033 51.1506 53.4676 48.9459 55.3467C47.3453 56.7111 45.4781 57.3505 43.4252 57.3805C41.3591 57.4106 39.2923 57.3873 37.2258 57.3887C36.9449 57.3887 36.6679 57.3609 36.5326 57.7314C36.0338 59.098 35.0319 59.8833 33.7235 60.3008L26.2794 60.3005ZM10.8398 23.708C10.8398 24.6258 10.8682 25.5448 10.8296 26.4609C10.8052 27.0361 10.9591 27.2773 11.5514 27.2373C12.2813 27.188 13.0166 27.2266 13.7496 27.2253C14.5248 27.2242 14.5139 27.2231 14.5291 26.4195C14.5712 24.1973 14.4225 21.9728 14.7326 19.7547C15.9254 11.2245 24.0859 5.00656 32.2898 6.40094C40.0115 7.71344 45.4529 14.3408 45.4757 22.4634C45.4796 23.8697 45.4819 25.2759 45.4736 26.6822C45.4717 27.0303 45.5521 27.2361 45.9423 27.2291C46.8631 27.2134 47.7843 27.2167 48.705 27.2273C49.0509 27.2314 49.1703 27.0628 49.1629 26.7266C49.1141 24.5028 49.2814 22.2745 49.0455 20.0547C48.55 15.3933 46.6978 11.3753 43.4733 8.12766C38.8084 3.42906 33.1746 1.54953 26.7713 2.69344C20.0646 3.89109 15.306 7.88547 12.4466 14.2841C11.1141 17.2641 10.678 20.4383 10.8398 23.708ZM10.6857 37.3277C10.6857 34.8902 10.6757 32.4517 10.6939 30.0139C10.6976 29.5284 10.5419 29.3467 10.0774 29.3777C9.60989 29.4089 9.13907 29.3777 8.67005 29.3902C6.7463 29.4403 5.12872 31.0308 5.09443 33.0295C5.04571 35.8759 5.05127 38.7245 5.09293 41.5712C5.11939 43.3748 6.45622 44.8598 8.16569 45.1622C8.78223 45.2716 9.40103 45.2247 10.017 45.268C10.5275 45.3037 10.7022 45.1333 10.6963 44.583C10.6711 42.1648 10.6858 39.7461 10.6857 37.3277ZM49.3171 37.3369C49.3171 39.7744 49.3244 42.2127 49.3101 44.6505C49.3076 45.0917 49.417 45.3083 49.8816 45.2658C50.254 45.2317 50.6318 45.2642 51.0071 45.2573C53.5193 45.2105 54.9903 43.2623 54.9452 41.1525C54.8885 38.5014 54.9515 35.8477 54.919 33.1956C54.9246 32.298 54.6217 31.4279 54.0649 30.7416C53.508 30.0554 52.7338 29.5982 51.8814 29.4523C51.2607 29.3383 50.6079 29.4269 49.9733 29.3762C49.4434 29.3339 49.3032 29.5545 49.308 30.0819C49.3291 32.5 49.3166 34.9192 49.3169 37.3369H49.3171ZM12.7619 37.2914C12.7619 37.8962 12.7619 38.501 12.7619 39.1058C12.7619 40.959 12.7619 42.8123 12.7619 44.6658C12.7619 44.9689 12.7469 45.2675 13.1772 45.2595C13.9469 45.2467 14.7177 45.2781 15.4861 45.2428C16.0938 45.2148 16.4389 44.8448 16.4399 44.2411C16.4473 39.6174 16.447 34.9939 16.4392 30.3703C16.438 29.7198 16.1234 29.4075 15.4963 29.3902C14.8583 29.3727 14.2196 29.383 13.5813 29.3834C12.764 29.3834 12.7622 29.385 12.7619 30.2089C12.7611 32.57 12.7612 34.9309 12.7619 37.2914ZM47.2407 37.3584C47.2407 34.9198 47.2291 32.4811 47.2498 30.0425C47.2542 29.5255 47.0867 29.3502 46.5977 29.3758C45.9422 29.4098 45.2837 29.3777 44.6267 29.3867C43.856 29.3972 43.5602 29.6897 43.559 30.4795C43.5536 35.0252 43.5534 39.5708 43.5583 44.1166C43.559 44.8642 43.8974 45.2275 44.6199 45.2522C45.2577 45.2739 45.8995 45.2187 46.5341 45.2708C47.1285 45.3194 47.258 45.0701 47.2516 44.4987C47.2253 42.1189 47.2408 39.7386 47.2407 37.3584ZM29.9862 54.3598V54.3636C29.0101 54.3636 28.0331 54.3398 27.0578 54.3703C26.6112 54.3758 26.1826 54.5539 25.8555 54.8699C25.5284 55.1859 25.3263 55.6171 25.2886 56.0795C25.2073 57.1784 25.7864 57.9806 26.8134 58.1836C26.9966 58.2253 27.1831 58.2495 27.3706 58.2559C29.1164 58.2616 30.8626 58.2766 32.6083 58.2542C33.9456 58.237 34.7286 57.4811 34.7216 56.282C34.7138 55.0805 33.9155 54.3636 32.577 54.3602C31.7129 54.358 30.8493 54.3598 29.9862 54.3598Z" fill="white"/>
<path d="M30.0239 34.3489C23.656 34.3866 18.4109 28.9946 18.3706 22.3688C18.3306 15.7677 23.5569 10.2613 29.8893 10.2321C36.343 10.2024 41.6109 15.5969 41.6305 22.2557C41.6506 28.8974 36.4549 34.31 30.0239 34.3489ZM29.9938 12.3892C28.7412 12.3837 27.4999 12.6355 26.3411 13.13C25.1824 13.6245 24.1291 14.352 23.2418 15.2708C22.3545 16.1895 21.6507 17.2814 21.1707 18.4836C20.6907 19.6859 20.4441 20.9748 20.445 22.2764C20.441 27.7625 24.7494 32.2563 30.0089 32.2522C32.5383 32.2378 34.9601 31.1865 36.7477 29.327C38.5353 27.4674 39.5443 24.9499 39.5553 22.3216C39.5617 21.0152 39.3186 19.7204 38.8404 18.5122C38.3621 17.304 37.658 16.2063 36.7688 15.2826C35.8796 14.359 34.823 13.6277 33.6601 13.131C32.4971 12.6344 31.2511 12.3823 29.9938 12.3892Z" fill="white"/>
<path d="M31.0394 23.6224C31.0394 24.9108 31.0396 26.1993 31.0401 27.4878C31.0409 28.24 31.0425 28.24 31.7882 28.262C32.6926 28.2888 33.1932 29.0214 32.8207 29.7752C32.7529 29.9384 32.641 30.0777 32.4985 30.1761C32.356 30.2746 32.1891 30.3279 32.018 30.3297C30.6842 30.3402 29.3499 30.3494 28.0162 30.3281C27.7587 30.3228 27.5135 30.2123 27.3339 30.0205C27.1542 29.8287 27.0545 29.5711 27.0564 29.3034C27.0597 29.0373 27.1603 28.7823 27.3377 28.5902C27.5151 28.3981 27.756 28.2832 28.0119 28.2688C28.9624 28.1767 28.9625 28.1767 28.9625 27.1708C28.9625 25.1405 28.9505 23.11 28.9708 21.0797C28.9758 20.5738 28.8723 20.3353 28.32 20.3558C27.5338 20.3847 27.0391 19.9163 27.0552 19.2708C27.0702 18.6467 27.5496 18.2381 28.3135 18.217C28.783 18.2041 29.2531 18.2056 29.7227 18.2159C30.64 18.2361 31.0286 18.6317 31.0362 19.5811C31.0469 20.9286 31.0386 22.2758 31.0394 23.6224Z" fill="white"/>
<path d="M31.0248 15.3033C31.0133 15.5769 30.905 15.8365 30.7207 16.0324C30.5365 16.2282 30.2892 16.3466 30.0262 16.3648C29.7531 16.36 29.4921 16.2466 29.2969 16.0481C29.1017 15.8496 28.9871 15.5809 28.9766 15.2973C28.988 15.0137 29.1039 14.7454 29.3002 14.548C29.4965 14.3505 29.7582 14.2388 30.0314 14.2361C30.2944 14.2557 30.5412 14.3754 30.7245 14.5723C30.9078 14.7693 31.0147 15.0295 31.0248 15.3033Z" fill="white"/>
</g>
<defs>
<clipPath id="clip0_124_150">
<rect width="60" height="60" fill="white"/>
</clipPath>
</defs>
</svg>
