<svg width="18" height="18" viewBox="0 0 18 18" fill="none" xmlns="http://www.w3.org/2000/svg">
<path d="M5.99461 7.25757L3.9988 9.87023L7.876 13.0685L8.59599 12.8179L7.37748 11.5761C6.97045 11.1605 7.62101 10.5591 8.02826 10.9748L9.52079 12.4961L10.0396 12.3155L9.07029 11.1065C8.70759 10.6556 9.4146 10.1191 9.7773 10.5703L10.9285 12.0061L12.8586 11.3344L9.51711 8.73476L8.33191 9.38105C8.27287 9.41739 8.20431 9.4407 8.12991 9.447L6.60321 9.57701C6.3201 9.60012 6.08306 9.36551 6.11788 9.08847L6.34022 7.3607L5.99461 7.25757ZM6.86966 6.60624L11.376 5.99461L15.0921 4.06479C15.3002 3.94045 15.5733 4.0001 15.7057 4.20069L17.9292 7.54343C18.064 7.75305 18.0017 8.02526 17.7819 8.15296L14.3046 10.1693L14.2142 11.5085C14.2019 11.6984 14.0663 11.8523 13.8876 11.9013C11.912 12.589 9.93626 13.2766 7.96035 13.9645C7.80874 14.0277 7.62685 14.0073 7.49233 13.8969C4.99778 11.8391 2.74482 10.0061 0.174583 8.07252C-0.0174711 7.92864 -0.0561848 7.66357 0.0839629 7.4737L2.17104 4.54872C2.30708 4.35737 2.57245 4.30444 2.77424 4.42437L6.00996 6.35L6.86966 6.60624ZM13.4131 10.0305L11.2947 6.88664L7.23755 7.43736L7.08032 8.65873L7.95667 8.58396L9.34107 7.82908C9.51301 7.73562 9.72106 7.76355 9.86013 7.88411L13.3736 10.6173L13.4131 10.0305ZM16.9218 7.63627L15.1743 5.00996L12.16 6.57516L14.012 9.32371L16.9218 7.63627ZM3.30022 9.32119L5.17037 6.87341L2.66761 5.38362L1.06024 7.63585L3.30022 9.32119Z" fill="#393939"/>
</svg>
