<svg width="18" height="18" viewBox="0 0 18 18" fill="none" xmlns="http://www.w3.org/2000/svg">
<g clip-path="url(#clip0_109_24589)">
<path d="M2.59336 8.88501C2.48576 8.72351 2.26739 8.67998 2.10578 8.78751C1.94431 8.89504 1.90061 9.11325 2.00822 9.27475C2.45264 9.94134 3.10745 10.6774 3.95424 11.4628C4.02199 11.5256 4.10774 11.5565 4.19336 11.5565C4.28777 11.5565 4.3819 11.5187 4.45116 11.4441C4.58322 11.302 4.57484 11.0797 4.43247 10.9477C3.63749 10.2104 3.0015 9.49708 2.59336 8.88501Z" fill="#393939"/>
<path d="M2.1093 7.78673C2.1093 7.78632 2.1093 7.78316 2.1093 7.78275C2.1093 7.58886 1.95236 7.43289 1.75846 7.43262C1.75819 7.43262 1.75805 7.43262 1.75777 7.43262C1.56415 7.43262 1.40694 7.59064 1.40625 7.78426V7.79676C1.40955 7.989 1.56621 8.14332 1.75777 8.14332H1.76368C1.95786 8.14002 2.1126 7.98089 2.1093 7.78673Z" fill="#393939"/>
<path d="M17.9599 14.0078L17.3191 12.7822C16.9831 12.1396 16.5524 11.5538 16.0394 11.041L14.288 9.29074C14.0882 9.0912 13.8227 8.9812 13.5403 8.9812C13.2579 8.9812 12.9923 9.0912 12.7926 9.29074C12.6793 9.40403 12.5972 9.53669 12.5462 9.67814C12.4288 9.6342 12.3034 9.61126 12.1743 9.61126C12.0177 9.61126 11.8662 9.64518 11.7284 9.70931C12.142 9.00592 12.3512 8.36089 12.3512 7.78232C12.3512 5.55486 10.6801 3.74268 8.62609 3.74268C7.72488 3.74268 6.85033 4.1022 6.17559 4.74009C5.50071 4.1022 4.6263 3.74268 3.72495 3.74268C1.67105 3.74268 0 5.55486 0 7.78232C0 9.06758 1.01774 10.66 3.02479 12.5156C4.48324 13.8639 5.91751 14.8426 5.97784 14.8836C6.03748 14.9241 6.10647 14.9444 6.17545 14.9444C6.24458 14.9444 6.31356 14.9241 6.3732 14.8836C6.42584 14.8479 7.60464 14.0435 8.91056 12.8909L10.1123 14.0919L9.77356 13.9908C9.20107 13.82 8.60603 14.1303 8.419 14.6975C8.25904 15.1828 8.45198 15.7079 8.88829 15.9745L10.8434 17.1688C11.3071 17.452 11.8143 17.6378 12.3512 17.7213L14.1143 17.9954C14.1326 17.9983 14.1507 17.9997 14.1687 17.9997C14.3391 17.9997 14.4886 17.8757 14.5157 17.7022C14.5455 17.5105 14.4142 17.331 14.2223 17.3011L12.4592 17.0271C12.0145 16.9579 11.5943 16.804 11.2102 16.5694L9.25507 15.3751C9.09869 15.2795 9.02956 15.0913 9.08687 14.9174C9.15393 14.7141 9.36707 14.6029 9.57238 14.6641L11.2438 15.163C11.3982 15.2092 11.5639 15.1445 11.6465 15.0063C11.7289 14.8682 11.7069 14.6917 11.593 14.578L7.97884 10.9663C7.84073 10.8283 7.84073 10.6036 7.97884 10.4656C8.04576 10.3987 8.13481 10.3619 8.22936 10.3619C8.32404 10.3619 8.41295 10.3987 8.47988 10.4656L11.7608 13.7443C11.8981 13.8815 12.1207 13.8813 12.258 13.7443C12.3953 13.6071 12.3953 13.3846 12.258 13.2474L10.6094 11.5999C10.5424 11.533 10.5056 11.444 10.5056 11.3496C10.5056 11.2549 10.5424 11.1661 10.6094 11.0992C10.6763 11.0323 10.7652 10.9955 10.8599 10.9955C10.9544 10.9955 11.0435 11.0323 11.1103 11.0992L11.4259 11.4147C11.4261 11.4148 11.4263 11.4149 11.4265 11.4152L12.7589 12.7467C12.8962 12.8839 13.1188 12.8839 13.2561 12.7467C13.3248 12.6781 13.359 12.5881 13.359 12.4983C13.359 12.4084 13.3247 12.3184 13.2561 12.2499L11.9237 10.9184C11.7856 10.7803 11.7856 10.5557 11.9237 10.4177C11.9906 10.3508 12.0795 10.314 12.1742 10.314C12.2687 10.314 12.3578 10.3508 12.4247 10.4177L13.7571 11.7492C13.8944 11.8864 14.117 11.8864 14.2543 11.7492C14.3916 11.612 14.3916 11.3895 14.2543 11.2523L13.2896 10.2883C13.2227 10.2214 13.1859 10.1326 13.1859 10.0379C13.1859 9.94346 13.2227 9.85461 13.2896 9.78759C13.3566 9.72085 13.4455 9.68391 13.5402 9.68391C13.6347 9.68391 13.7237 9.72085 13.7907 9.78773L15.5421 11.538C16.0047 12.0002 16.3927 12.5284 16.6958 13.1078L17.3367 14.3334C17.4266 14.5054 17.639 14.572 17.8111 14.482C17.9833 14.3921 18.0499 14.1799 17.9599 14.0078ZM9.90453 10.8954L8.97707 9.96873C8.77739 9.76919 8.5119 9.65919 8.22936 9.65919C7.94696 9.65919 7.68146 9.76919 7.48165 9.96873C7.06938 10.3807 7.06938 11.0511 7.48165 11.4631L8.41226 12.3931C7.45718 13.2326 6.56051 13.8903 6.17545 14.1642C5.73254 13.8492 4.61256 13.0263 3.50233 11.9999C1.67105 10.307 0.703049 8.84854 0.703049 7.78246C0.703049 5.9424 2.05871 4.44552 3.72495 4.44552C4.55759 4.44552 5.33347 4.81205 5.90968 5.47782C5.97633 5.55486 6.07349 5.59922 6.17545 5.59922C6.27756 5.59922 6.37458 5.55486 6.44136 5.47782C7.01757 4.81205 7.79346 4.44552 8.62609 4.44552C10.2923 4.44552 11.648 5.9424 11.648 7.78246C11.648 8.49684 11.2173 9.38192 10.3685 10.4135C10.2752 10.4626 10.1889 10.5259 10.1122 10.6025C10.0255 10.689 9.95578 10.788 9.90453 10.8954Z" fill="#393939"/>
<path d="M6.17574 0.703142C6.26823 0.703142 6.35893 0.665491 6.42434 0.600082C6.48975 0.534674 6.52727 0.443981 6.52727 0.351502C6.52727 0.258748 6.48975 0.168331 6.42434 0.10306C6.35893 0.0372389 6.26823 0 6.17574 0C6.08326 0 5.99256 0.0372389 5.92728 0.10306C5.86187 0.168331 5.82422 0.258748 5.82422 0.351502C5.82422 0.443981 5.86187 0.534674 5.92728 0.600082C5.99256 0.665491 6.0834 0.703142 6.17574 0.703142Z" fill="#393939"/>
<path d="M8.16406 2.99336C8.25407 2.99336 8.34394 2.959 8.41265 2.89044L9.27236 2.03078C9.40965 1.8935 9.40965 1.6709 9.27236 1.53362C9.13508 1.39635 8.91246 1.39635 8.77517 1.53362L7.91546 2.39328C7.77818 2.53055 7.77818 2.75316 7.91546 2.89044C7.98417 2.95914 8.07405 2.99336 8.16406 2.99336Z" fill="#393939"/>
<path d="M3.94081 2.88712C4.00952 2.95569 4.09939 2.99004 4.1894 2.99004C4.27941 2.99004 4.36942 2.95569 4.438 2.88712C4.57528 2.74985 4.57528 2.52724 4.438 2.38996L3.58076 1.53264C3.44348 1.39537 3.22085 1.39537 3.08343 1.53264C2.94615 1.66992 2.94615 1.89253 3.08343 2.0298L3.94081 2.88712Z" fill="#393939"/>
<path d="M6.17574 1.42969C5.9817 1.42969 5.82422 1.58693 5.82422 1.78097V2.88042C5.82422 3.07447 5.9817 3.23171 6.17574 3.23171C6.36992 3.23171 6.52741 3.07447 6.52741 2.88042V1.78097C6.52741 1.58693 6.36992 1.42969 6.17574 1.42969Z" fill="#393939"/>
</g>
<defs>
<clipPath id="clip0_109_24589">
<rect width="18" height="18" fill="white" transform="matrix(-1 0 0 1 18 0)"/>
</clipPath>
</defs>
</svg>
